PathFileType	4	(X/Y/Z)	C:\Users\dbl\Desktop\20210112(1)\20210112\bx_y_10_901.trc
DataRate	CameraRate	NumFrames	NumMarkers	Units	OrigDataRate	OrigDataStartFrame	OrigNumFrames
50.00	50.00	       5	43	mm	50.00	1	       530
Frame#	Time	Top.Head			R.Acromium			L.Acromium			Sternum			R.ASIS			L.ASIS			V.Sacral			R.Thigh.Upper			R.Thigh.Front			R.Thigh.Rear			R.Knee.Lat			R.Knee.Med			R.Shank.Upper			R.Shank.Front			R.Shank.Rear			R.Ankle.Lat			R.Midfoot.Lat			R.Toe.Lat			R.Toe.Tip			R.Toe.Med			R.Ankle.Med			R.Midfoot.Sup			R.Heel			L.Thigh.Upper			L.Thigh.Front			L.Thigh.Rear			L.Knee.Lat			L.Knee.Med			L.Shank.Upper			L.Shank.Front			L.Shank.Rear			L.Ankle.Lat			L.Midfoot.Lat			L.Toe.Lat			L.Toe.Tip			L.Toe.Med			L.Ankle.Med			L.Midfoot.Sup			L.Heel			origin1 front left			origin2 front right			origin 3 back right			origin 4 back leftt			
		X1	Y1	Z1	X2	Y2	Z2	X3	Y3	Z3	X4	Y4	Z4	X5	Y5	Z5	X6	Y6	Z6	X7	Y7	Z7	X8	Y8	Z8	X9	Y9	Z9	X10	Y10	Z10	X11	Y11	Z11	X12	Y12	Z12	X13	Y13	Z13	X14	Y14	Z14	X15	Y15	Z15	X16	Y16	Z16	X17	Y17	Z17	X18	Y18	Z18	X19	Y19	Z19	X20	Y20	Z20	X21	Y21	Z21	X22	Y22	Z22	X23	Y23	Z23	X24	Y24	Z24	X25	Y25	Z25	X26	Y26	Z26	X27	Y27	Z27	X28	Y28	Z28	X29	Y29	Z29	X30	Y30	Z30	X31	Y31	Z31	X32	Y32	Z32	X33	Y33	Z33	X34	Y34	Z34	X35	Y35	Z35	X36	Y36	Z36	X37	Y37	Z37	X38	Y38	Z38	X39	Y39	Z39	X40	Y40	Z40	X41	Y41	Z41	X42	Y42	Z42	X43	Y43	Z43	

1	0.000	-668.26685	116.76646	1852.66016	-708.55084	-67.52109	1546.61328	-719.65527	293.19440	1530.71204	-620.59039	109.33629	1436.70764	-603.47992	-2.54623	1049.02869	-594.68176	222.09241	1067.45203	-801.74524	97.82181	1059.20410	-659.45142	-64.21619	867.33429	-594.43872	-1.34346	802.62286	-703.72101	-47.90626	715.91028	-707.95831	-23.51842	614.37860	-697.82623	84.04911	574.73987	-720.68341	-22.25832	566.57135	-673.08661	22.34749	519.21259	-767.23627	-32.66470	487.51334	-766.62256	-3.30264	207.10484	-664.03217	-65.30392	164.69879	-623.61224	-77.18031	159.93985	-560.79645	-42.00908	163.85307	-602.69525	20.15709	165.68552	-717.29413	80.26145	215.45439	-674.60077	57.61504	155.76639	-794.75922	56.91816	174.69261	-649.87885	282.05914	875.82098	-594.15143	215.29057	814.83160	-698.55615	274.95825	747.27264	-730.44568	251.78973	643.20874	-698.51447	142.97827	574.66217	-735.16058	246.85573	576.66827	-682.12567	204.87831	532.88086	-776.63763	256.05984	502.63202	-771.85980	222.55980	204.89003	-666.49811	298.36823	160.83043	-628.87549	306.11020	161.93066	-561.10168	261.41052	165.68381	-594.85260	222.26115	173.44876	-712.33081	151.89778	216.56407	-675.36823	171.55835	157.14854	-797.08887	172.27957	183.57693	-528.35303	304.22958	146.59898	-517.72046	-72.17966	143.01840	-876.12769	-78.51554	141.48257	-882.67010	296.06631	144.56978	
2	0.020	-668.45111	116.68324	1852.72534	-708.60223	-67.51681	1546.66956	-719.79590	293.16220	1530.82617	-620.73608	109.45483	1436.78760	-603.52496	-2.47152	1049.06006	-594.77277	222.09628	1067.46179	-801.80481	97.83952	1059.15527	-659.49005	-64.29280	867.43390	-594.45062	-1.29425	802.68262	-703.73785	-47.73074	715.91974	-707.83514	-23.71660	614.53552	-697.82599	84.06700	574.80298	-720.73822	-22.11320	566.59430	-673.08643	22.35135	519.21759	-767.31122	-32.70573	487.57700	-766.57483	-3.39439	207.06075	-663.98901	-65.35623	164.67770	-623.52191	-77.03085	160.02190	-560.87946	-41.99516	163.92001	-602.75037	20.17103	165.75093	-717.33655	80.30331	215.48466	-674.56396	57.68608	155.86214	-794.75842	56.87112	174.72987	-649.88770	282.22110	875.93719	-594.13416	215.26263	814.84906	-698.65643	275.16107	747.44958	-730.41870	251.79314	643.17126	-698.46777	142.99931	574.71533	-735.15704	246.85609	576.67670	-682.22125	204.85414	532.84064	-776.62823	255.98817	502.68488	-771.84760	222.58534	204.81850	-666.48352	298.38071	160.71828	-628.93701	306.10266	161.88690	-561.11353	261.49036	165.72446	-594.85736	222.16933	173.52946	-712.33099	151.87492	216.62859	-675.42761	171.57306	157.08501	-797.08881	172.17023	183.60881	-528.29028	304.24356	146.57100	-517.75476	-72.26609	142.97734	-876.07776	-78.56413	141.48596	-882.59601	296.09985	144.61223	
3	0.040	-668.67450	116.57618	1852.75684	-708.66095	-67.49997	1546.71350	-719.90094	293.14709	1530.91479	-620.87549	109.57993	1436.84436	-603.55420	-2.40875	1049.09204	-594.83600	222.10918	1067.50818	-801.84784	97.84801	1059.11230	-659.53003	-64.32793	867.49518	-594.43475	-1.25351	802.75732	-703.76141	-47.60982	715.96436	-707.63434	-24.03168	614.79608	-697.79822	84.06979	574.85815	-720.81592	-21.99809	566.60089	-673.08636	22.36001	519.22870	-767.36053	-32.69619	487.59973	-766.55670	-3.44465	207.05617	-663.95227	-65.38091	164.66714	-623.47479	-76.94085	160.10577	-560.92993	-42.00150	163.97168	-602.79254	20.18087	165.79472	-717.35938	80.30983	215.46907	-674.53424	57.71563	155.91933	-794.75775	56.84349	174.76613	-649.90045	282.32101	876.01337	-594.12561	215.25490	814.85223	-698.73877	275.24759	747.53888	-730.40155	251.80156	643.13733	-698.41602	143.01768	574.77271	-735.16333	246.86375	576.69366	-682.28302	204.84384	532.81500	-776.61469	255.98367	502.71567	-771.84369	222.62036	204.77690	-666.47070	298.37997	160.64525	-628.97076	306.07831	161.84119	-561.11639	261.55185	165.76764	-594.88495	222.11453	173.61536	-712.33063	151.86534	216.65204	-675.47485	171.58739	157.04832	-797.06244	172.11145	183.60844	-528.24908	304.27365	146.53143	-517.78503	-72.32007	142.95824	-876.04327	-78.58938	141.49719	-882.55817	296.12433	144.63583	
4	0.060	-668.94501	116.48243	1852.74414	-708.72827	-67.48244	1546.74402	-719.96698	293.15588	1530.97559	-620.99652	109.71258	1436.88110	-603.56342	-2.36036	1049.13025	-594.88165	222.13188	1067.58630	-801.87762	97.85889	1059.09497	-659.55841	-64.29836	867.50439	-594.41321	-1.22597	802.82159	-703.78253	-47.55167	716.03937	-707.39105	-24.40200	615.11829	-697.74377	84.06404	574.88831	-720.91162	-21.93547	566.59045	-673.08685	22.37202	519.24414	-767.36902	-32.64991	487.58487	-766.55994	-3.44632	207.08337	-663.92023	-65.38449	164.66707	-623.48975	-76.93639	160.17459	-560.94434	-42.01334	163.97740	-602.81488	20.18291	165.81470	-717.36877	80.28740	215.41577	-674.50781	57.70921	155.94371	-794.75519	56.84200	174.79210	-649.91736	282.35229	876.04187	-594.12769	215.26788	814.84821	-698.79022	275.21518	747.53339	-730.39801	251.80960	643.11316	-698.36389	143.02087	574.82251	-735.18781	246.88197	576.71509	-682.30542	204.84688	532.80969	-776.60773	256.01907	502.70834	-771.84564	222.65990	204.75710	-666.46826	298.37375	160.62453	-628.97479	306.05109	161.80406	-561.10638	261.58145	165.80396	-594.93408	222.11574	173.69116	-712.32422	151.86719	216.64529	-675.49664	171.60120	157.05246	-797.01514	172.13362	183.54771	-528.23431	304.31268	146.50539	-517.79974	-72.32925	142.99005	-876.02814	-78.59259	141.51068	-882.54767	296.12845	144.63904	
5	0.080	-669.23602	116.44654	1852.71094	-708.80096	-67.48177	1546.76990	-720.01459	293.17975	1531.02649	-621.08057	109.83490	1436.91199	-603.55914	-2.31735	1049.18079	-594.92249	222.15889	1067.66724	-801.90326	97.88515	1059.11560	-659.56549	-64.21194	867.47614	-594.42926	-1.21217	802.83411	-703.78711	-47.53141	716.10895	-707.23346	-24.62258	615.33746	-697.69330	84.06668	574.88586	-720.99268	-21.92987	566.57190	-673.08746	22.37762	519.25171	-767.33984	-32.62914	487.57831	-766.55463	-3.41884	207.10155	-663.89050	-65.39492	164.67458	-623.54810	-76.99857	160.19824	-560.94434	-42.00688	163.93063	-602.81915	20.17985	165.81749	-717.36267	80.26615	215.37891	-674.48486	57.68560	155.95245	-794.75269	56.86054	174.79974	-649.93304	282.35394	876.04047	-594.14709	215.29739	814.85236	-698.81934	275.15317	747.50104	-730.40137	251.80339	643.10132	-698.32837	143.01637	574.84985	-735.23169	246.90472	576.72058	-682.30853	204.86237	532.82990	-776.62494	256.02594	502.67889	-771.84735	222.69212	204.73167	-666.48389	298.38412	160.64673	-628.96851	306.04144	161.78535	-561.08600	261.57422	165.82892	-594.97772	222.15887	173.72993	-712.31104	151.86696	216.65007	-675.47119	171.61002	157.09846	-796.97870	172.21037	183.45203	-528.23914	304.33902	146.51820	-517.79498	-72.28150	143.06546	-876.02582	-78.58741	141.51872	-882.53992	296.12036	144.63612	
